<svg width="38" height="39" viewBox="0 0 38 39" fill="none" xmlns="http://www.w3.org/2000/svg">
<path d="M32.0625 10.8401H5.9375C5.28166 10.8401 4.75 11.3718 4.75 12.0276V31.0276C4.75 31.6835 5.28166 32.2151 5.9375 32.2151H32.0625C32.7183 32.2151 33.25 31.6835 33.25 31.0276V12.0276C33.25 11.3718 32.7183 10.8401 32.0625 10.8401Z" stroke="#6D737A" stroke-width="1.5" stroke-linecap="round" stroke-linejoin="round"/>
<path d="M24.9375 10.8401V8.46515C24.9375 7.83526 24.6873 7.23117 24.2419 6.78577C23.7965 6.34037 23.1924 6.09015 22.5625 6.09015H15.4375C14.8076 6.09015 14.2035 6.34037 13.7581 6.78577C13.3127 7.23117 13.0625 7.83526 13.0625 8.46515V10.8401" stroke="#6D737A" stroke-width="1.5" stroke-linecap="round" stroke-linejoin="round"/>
<path d="M33.25 18.9003C28.919 21.4051 24.0031 22.7211 19 22.7152C13.9959 22.7282 9.07825 21.4117 4.75 18.9003" stroke="#6D737A" stroke-width="1.5" stroke-linecap="round" stroke-linejoin="round"/>
<path d="M17.2188 17.9651H20.7812" stroke="#6D737A" stroke-width="1.5" stroke-linecap="round" stroke-linejoin="round"/>
</svg>
