<svg width="38" height="39" viewBox="0 0 38 39" fill="none" xmlns="http://www.w3.org/2000/svg">
<path d="M19 19.0779C26.2142 19.0779 32.0625 15.8879 32.0625 11.9529C32.0625 8.01785 26.2142 4.82788 19 4.82788C11.7858 4.82788 5.9375 8.01785 5.9375 11.9529C5.9375 15.8879 11.7858 19.0779 19 19.0779Z" stroke="#6D737A" stroke-width="1.5" stroke-linecap="round" stroke-linejoin="round"/>
<path d="M5.9375 11.9529V19.0779C5.9375 23.0115 11.7859 26.2029 19 26.2029C26.2141 26.2029 32.0625 23.0115 32.0625 19.0779V11.9529" stroke="#6D737A" stroke-width="1.5" stroke-linecap="round" stroke-linejoin="round"/>
<path d="M5.9375 19.0779V26.2029C5.9375 30.1365 11.7859 33.3279 19 33.3279C26.2141 33.3279 32.0625 30.1365 32.0625 26.2029V19.0779" stroke="#6D737A" stroke-width="1.5" stroke-linecap="round" stroke-linejoin="round"/>
</svg>
