<svg width="38" height="39" viewBox="0 0 38 39" fill="none" xmlns="http://www.w3.org/2000/svg">
<path d="M19 22.7151C20.9675 22.7151 22.5625 21.1202 22.5625 19.1526C22.5625 17.1851 20.9675 15.5901 19 15.5901C17.0325 15.5901 15.4375 17.1851 15.4375 19.1526C15.4375 21.1202 17.0325 22.7151 19 22.7151Z" stroke="#6D737A" stroke-width="1.5" stroke-linecap="round" stroke-linejoin="round"/>
<path d="M14.25 12.0276C16.2175 12.0276 17.8125 10.4327 17.8125 8.46515C17.8125 6.49763 16.2175 4.90265 14.25 4.90265C12.2825 4.90265 10.6875 6.49763 10.6875 8.46515C10.6875 10.4327 12.2825 12.0276 14.25 12.0276Z" stroke="#6D737A" stroke-width="1.5" stroke-linecap="round" stroke-linejoin="round"/>
<path d="M29.6875 19.1526C31.655 19.1526 33.25 17.5577 33.25 15.5901C33.25 13.6226 31.655 12.0276 29.6875 12.0276C27.72 12.0276 26.125 13.6226 26.125 15.5901C26.125 17.5577 27.72 19.1526 29.6875 19.1526Z" stroke="#6D737A" stroke-width="1.5" stroke-linecap="round" stroke-linejoin="round"/>
<path d="M29.6875 31.0276C31.655 31.0276 33.25 29.4327 33.25 27.4651C33.25 25.4976 31.655 23.9026 29.6875 23.9026C27.72 23.9026 26.125 25.4976 26.125 27.4651C26.125 29.4327 27.72 31.0276 29.6875 31.0276Z" stroke="#6D737A" stroke-width="1.5" stroke-linecap="round" stroke-linejoin="round"/>
<path d="M8.3125 32.2151C10.28 32.2151 11.875 30.6202 11.875 28.6526C11.875 26.6851 10.28 25.0901 8.3125 25.0901C6.34499 25.0901 4.75 26.6851 4.75 28.6526C4.75 30.6202 6.34499 32.2151 8.3125 32.2151Z" stroke="#6D737A" stroke-width="1.5" stroke-linecap="round" stroke-linejoin="round"/>
<path d="M17.5603 15.9019L15.6899 11.7159" stroke="#6D737A" stroke-width="1.5" stroke-linecap="round" stroke-linejoin="round"/>
<path d="M26.303 16.7183L22.3843 18.0245" stroke="#6D737A" stroke-width="1.5" stroke-linecap="round" stroke-linejoin="round"/>
<path d="M26.8822 25.2831L21.8057 21.3347" stroke="#6D737A" stroke-width="1.5" stroke-linecap="round" stroke-linejoin="round"/>
<path d="M16.3432 21.5128L10.9697 26.2925" stroke="#6D737A" stroke-width="1.5" stroke-linecap="round" stroke-linejoin="round"/>
</svg>
