<svg width="1543" height="363" viewBox="0 0 1543 363" fill="none" xmlns="http://www.w3.org/2000/svg">
<path d="M1.4624 362.075H1542.12" stroke="#CCCCCC"/>
<path d="M1.4624 271.875H1542.12" stroke="#CCCCCC"/>
<path d="M1.4624 181.675H1542.12" stroke="#CCCCCC"/>
<path d="M1.4624 91.475H1542.12" stroke="#CCCCCC"/>
<path d="M1.4624 1.275H1542.12" stroke="#CCCCCC"/>
<path d="M1.4624 1.275V362.075" stroke="#CCCCCC"/>
<path d="M97.7534 1.275V362.075" stroke="#CCCCCC"/>
<path d="M194.044 1.275V362.075" stroke="#CCCCCC"/>
<path d="M290.335 1.275V362.075" stroke="#CCCCCC"/>
<path d="M386.626 1.275V362.075" stroke="#CCCCCC"/>
<path d="M482.917 1.275V362.075" stroke="#CCCCCC"/>
<path d="M579.208 1.275V362.075" stroke="#CCCCCC"/>
<path d="M675.499 1.275V362.075" stroke="#CCCCCC"/>
<path d="M771.79 1.275V362.075" stroke="#CCCCCC"/>
<path d="M868.081 1.275V362.075" stroke="#CCCCCC"/>
<path d="M964.372 1.275V362.075" stroke="#CCCCCC"/>
<path d="M1060.66 1.275V362.075" stroke="#CCCCCC"/>
<path d="M1156.95 1.275V362.075" stroke="#CCCCCC"/>
<path d="M1253.25 1.275V362.075" stroke="#CCCCCC"/>
<path d="M1349.54 1.275V362.075" stroke="#CCCCCC"/>
<path d="M1445.83 1.275V362.075" stroke="#CCCCCC"/>
<path d="M1542.12 1.275V362.075" stroke="#CCCCCC"/>
</svg>
