<svg width="1558" height="361" viewBox="0 0 1558 361" fill="none" xmlns="http://www.w3.org/2000/svg">
<path d="M8.4624 353.042L104.753 232.775L201.044 187.675L297.335 7.275L393.626 307.942L489.917 217.742L586.208 172.642L682.499 247.808L778.79 67.4083L875.081 217.742L971.372 247.808L1067.66 322.975L1163.95 142.575L1260.25 338.008L1356.54 172.642H1452.83L1549.12 353.042" stroke="#159457"/>
<path d="M8.46244 359.807C12.7311 359.807 16.1915 356.778 16.1915 353.042C16.1915 349.305 12.7311 346.277 8.46244 346.277C4.19381 346.277 0.733398 349.305 0.733398 353.042C0.733398 356.778 4.19381 359.807 8.46244 359.807Z" fill="white" stroke="#159457"/>
<path d="M104.753 239.54C109.022 239.54 112.482 236.511 112.482 232.775C112.482 229.039 109.022 226.01 104.753 226.01C100.485 226.01 97.0244 229.039 97.0244 232.775C97.0244 236.511 100.485 239.54 104.753 239.54Z" fill="white" stroke="#159457"/>
<path d="M201.044 194.44C205.313 194.44 208.774 191.411 208.774 187.675C208.774 183.939 205.313 180.91 201.044 180.91C196.776 180.91 193.315 183.939 193.315 187.675C193.315 191.411 196.776 194.44 201.044 194.44Z" fill="white" stroke="#159457"/>
<path d="M297.335 14.04C301.604 14.04 305.065 11.0112 305.065 7.275C305.065 3.5388 301.604 0.510002 297.335 0.510002C293.067 0.510002 289.606 3.5388 289.606 7.275C289.606 11.0112 293.067 14.04 297.335 14.04Z" fill="white" stroke="#159457"/>
<path d="M393.627 314.707C397.895 314.707 401.356 311.678 401.356 307.942C401.356 304.205 397.895 301.177 393.627 301.177C389.358 301.177 385.897 304.205 385.897 307.942C385.897 311.678 389.358 314.707 393.627 314.707Z" fill="white" stroke="#159457"/>
<path d="M489.918 224.507C494.186 224.507 497.647 221.478 497.647 217.742C497.647 214.005 494.186 210.977 489.918 210.977C485.649 210.977 482.188 214.005 482.188 217.742C482.188 221.478 485.649 224.507 489.918 224.507Z" fill="white" stroke="#159457"/>
<path d="M586.209 179.407C590.477 179.407 593.938 176.378 593.938 172.642C593.938 168.905 590.477 165.877 586.209 165.877C581.94 165.877 578.479 168.905 578.479 172.642C578.479 176.378 581.94 179.407 586.209 179.407Z" fill="white" stroke="#159457"/>
<path d="M682.5 254.573C686.768 254.573 690.229 251.545 690.229 247.808C690.229 244.072 686.768 241.043 682.5 241.043C678.231 241.043 674.771 244.072 674.771 247.808C674.771 251.545 678.231 254.573 682.5 254.573Z" fill="white" stroke="#159457"/>
<path d="M778.791 74.1733C783.059 74.1733 786.52 71.1445 786.52 67.4083C786.52 63.6721 783.059 60.6433 778.791 60.6433C774.522 60.6433 771.062 63.6721 771.062 67.4083C771.062 71.1445 774.522 74.1733 778.791 74.1733Z" fill="white" stroke="#159457"/>
<path d="M875.081 224.507C879.35 224.507 882.81 221.478 882.81 217.742C882.81 214.005 879.35 210.977 875.081 210.977C870.812 210.977 867.352 214.005 867.352 217.742C867.352 221.478 870.812 224.507 875.081 224.507Z" fill="white" stroke="#159457"/>
<path d="M971.372 254.573C975.641 254.573 979.101 251.545 979.101 247.808C979.101 244.072 975.641 241.043 971.372 241.043C967.103 241.043 963.643 244.072 963.643 247.808C963.643 251.545 967.103 254.573 971.372 254.573Z" fill="white" stroke="#159457"/>
<path d="M1067.66 329.74C1071.93 329.74 1075.39 326.711 1075.39 322.975C1075.39 319.239 1071.93 316.21 1067.66 316.21C1063.39 316.21 1059.93 319.239 1059.93 322.975C1059.93 326.711 1063.39 329.74 1067.66 329.74Z" fill="white" stroke="#159457"/>
<path d="M1163.95 149.34C1168.22 149.34 1171.68 146.311 1171.68 142.575C1171.68 138.839 1168.22 135.81 1163.95 135.81C1159.69 135.81 1156.23 138.839 1156.23 142.575C1156.23 146.311 1159.69 149.34 1163.95 149.34Z" fill="white" stroke="#159457"/>
<path d="M1260.25 344.773C1264.51 344.773 1267.97 341.745 1267.97 338.008C1267.97 334.272 1264.51 331.243 1260.25 331.243C1255.98 331.243 1252.52 334.272 1252.52 338.008C1252.52 341.745 1255.98 344.773 1260.25 344.773Z" fill="white" stroke="#159457"/>
<path d="M1356.54 179.407C1360.8 179.407 1364.27 176.378 1364.27 172.642C1364.27 168.905 1360.8 165.877 1356.54 165.877C1352.27 165.877 1348.81 168.905 1348.81 172.642C1348.81 176.378 1352.27 179.407 1356.54 179.407Z" fill="white" stroke="#159457"/>
<path d="M1452.83 179.407C1457.1 179.407 1460.56 176.378 1460.56 172.642C1460.56 168.905 1457.1 165.877 1452.83 165.877C1448.56 165.877 1445.1 168.905 1445.1 172.642C1445.1 176.378 1448.56 179.407 1452.83 179.407Z" fill="white" stroke="#159457"/>
<path d="M1549.12 359.807C1553.39 359.807 1556.85 356.778 1556.85 353.042C1556.85 349.305 1553.39 346.277 1549.12 346.277C1544.85 346.277 1541.39 349.305 1541.39 353.042C1541.39 356.778 1544.85 359.807 1549.12 359.807Z" fill="white" stroke="#159457"/>
</svg>
