<svg width="1558" height="331" viewBox="0 0 1558 331" fill="none" xmlns="http://www.w3.org/2000/svg">
<path d="M8.4624 262.875L104.753 157.642L201.044 7.30833L297.335 172.675L393.626 37.375L489.917 127.575L586.208 277.908L682.499 247.842L778.79 323.008L875.081 97.5083L971.372 172.675L1067.66 97.5083L1163.95 277.908L1260.25 247.842L1356.54 112.542L1452.83 232.808L1549.12 292.942" stroke="#00C185" stroke-width="2"/>
<path d="M8.46244 269.64C12.7311 269.64 16.1915 266.611 16.1915 262.875C16.1915 259.139 12.7311 256.11 8.46244 256.11C4.19381 256.11 0.733398 259.139 0.733398 262.875C0.733398 266.611 4.19381 269.64 8.46244 269.64Z" fill="white" stroke="#0E9728"/>
<path d="M104.753 164.407C109.022 164.407 112.482 161.378 112.482 157.642C112.482 153.905 109.022 150.877 104.753 150.877C100.485 150.877 97.0244 153.905 97.0244 157.642C97.0244 161.378 100.485 164.407 104.753 164.407Z" fill="white" stroke="#0E9728"/>
<path d="M201.044 14.0733C205.313 14.0733 208.774 11.0445 208.774 7.30833C208.774 3.57213 205.313 0.543335 201.044 0.543335C196.776 0.543335 193.315 3.57213 193.315 7.30833C193.315 11.0445 196.776 14.0733 201.044 14.0733Z" fill="white" stroke="#0E9728"/>
<path d="M297.335 179.44C301.604 179.44 305.065 176.411 305.065 172.675C305.065 168.939 301.604 165.91 297.335 165.91C293.067 165.91 289.606 168.939 289.606 172.675C289.606 176.411 293.067 179.44 297.335 179.44Z" fill="white" stroke="#0E9728"/>
<path d="M393.627 44.14C397.895 44.14 401.356 41.1112 401.356 37.375C401.356 33.6388 397.895 30.61 393.627 30.61C389.358 30.61 385.897 33.6388 385.897 37.375C385.897 41.1112 389.358 44.14 393.627 44.14Z" fill="white" stroke="#0E9728"/>
<path d="M489.918 134.34C494.186 134.34 497.647 131.311 497.647 127.575C497.647 123.839 494.186 120.81 489.918 120.81C485.649 120.81 482.188 123.839 482.188 127.575C482.188 131.311 485.649 134.34 489.918 134.34Z" fill="white" stroke="#0E9728"/>
<path d="M586.209 284.673C590.477 284.673 593.938 281.645 593.938 277.908C593.938 274.172 590.477 271.143 586.209 271.143C581.94 271.143 578.479 274.172 578.479 277.908C578.479 281.645 581.94 284.673 586.209 284.673Z" fill="white" stroke="#0E9728"/>
<path d="M682.5 254.607C686.768 254.607 690.229 251.578 690.229 247.842C690.229 244.105 686.768 241.077 682.5 241.077C678.231 241.077 674.771 244.105 674.771 247.842C674.771 251.578 678.231 254.607 682.5 254.607Z" fill="white" stroke="#0E9728"/>
<path d="M778.791 329.773C783.059 329.773 786.52 326.745 786.52 323.008C786.52 319.272 783.059 316.243 778.791 316.243C774.522 316.243 771.062 319.272 771.062 323.008C771.062 326.745 774.522 329.773 778.791 329.773Z" fill="white" stroke="#0E9728"/>
<path d="M875.081 104.273C879.35 104.273 882.81 101.245 882.81 97.5083C882.81 93.7721 879.35 90.7433 875.081 90.7433C870.812 90.7433 867.352 93.7721 867.352 97.5083C867.352 101.245 870.812 104.273 875.081 104.273Z" fill="white" stroke="#0E9728"/>
<path d="M971.372 179.44C975.641 179.44 979.101 176.411 979.101 172.675C979.101 168.939 975.641 165.91 971.372 165.91C967.103 165.91 963.643 168.939 963.643 172.675C963.643 176.411 967.103 179.44 971.372 179.44Z" fill="white" stroke="#0E9728"/>
<path d="M1067.66 104.273C1071.93 104.273 1075.39 101.245 1075.39 97.5083C1075.39 93.7721 1071.93 90.7433 1067.66 90.7433C1063.39 90.7433 1059.93 93.7721 1059.93 97.5083C1059.93 101.245 1063.39 104.273 1067.66 104.273Z" fill="white" stroke="#0E9728"/>
<path d="M1163.95 284.673C1168.22 284.673 1171.68 281.645 1171.68 277.908C1171.68 274.172 1168.22 271.143 1163.95 271.143C1159.69 271.143 1156.23 274.172 1156.23 277.908C1156.23 281.645 1159.69 284.673 1163.95 284.673Z" fill="white" stroke="#0E9728"/>
<path d="M1260.25 254.607C1264.51 254.607 1267.97 251.578 1267.97 247.842C1267.97 244.105 1264.51 241.077 1260.25 241.077C1255.98 241.077 1252.52 244.105 1252.52 247.842C1252.52 251.578 1255.98 254.607 1260.25 254.607Z" fill="white" stroke="#0E9728"/>
<path d="M1356.54 119.307C1360.8 119.307 1364.27 116.278 1364.27 112.542C1364.27 108.805 1360.8 105.777 1356.54 105.777C1352.27 105.777 1348.81 108.805 1348.81 112.542C1348.81 116.278 1352.27 119.307 1356.54 119.307Z" fill="white" stroke="#0E9728"/>
<path d="M1452.83 239.573C1457.1 239.573 1460.56 236.545 1460.56 232.808C1460.56 229.072 1457.1 226.043 1452.83 226.043C1448.56 226.043 1445.1 229.072 1445.1 232.808C1445.1 236.545 1448.56 239.573 1452.83 239.573Z" fill="white" stroke="#0E9728"/>
<path d="M1549.12 299.707C1553.39 299.707 1556.85 296.678 1556.85 292.942C1556.85 289.205 1553.39 286.177 1549.12 286.177C1544.85 286.177 1541.39 289.205 1541.39 292.942C1541.39 296.678 1544.85 299.707 1549.12 299.707Z" fill="white" stroke="#0E9728"/>
</svg>
