<svg width="25" height="25" viewBox="0 0 25 25" fill="none" xmlns="http://www.w3.org/2000/svg">
<path d="M19.8545 9.12769H4.85449C4.44028 9.12769 4.10449 9.46347 4.10449 9.87769V20.3777C4.10449 20.7919 4.44028 21.1277 4.85449 21.1277H19.8545C20.2687 21.1277 20.6045 20.7919 20.6045 20.3777V9.87769C20.6045 9.46347 20.2687 9.12769 19.8545 9.12769Z" stroke="white" stroke-width="1.5" stroke-linecap="round" stroke-linejoin="round"/>
<path d="M8.97949 9.12769V5.75269C8.97949 4.85758 9.33507 3.99914 9.96801 3.3662C10.6009 2.73326 11.4594 2.37769 12.3545 2.37769C13.2496 2.37769 14.108 2.73326 14.741 3.3662C15.3739 3.99914 15.7295 4.85758 15.7295 5.75269V9.12769" stroke="white" stroke-width="1.5" stroke-linecap="round" stroke-linejoin="round"/>
<path d="M12.3545 16.2527C12.9758 16.2527 13.4795 15.749 13.4795 15.1277C13.4795 14.5064 12.9758 14.0027 12.3545 14.0027C11.7332 14.0027 11.2295 14.5064 11.2295 15.1277C11.2295 15.749 11.7332 16.2527 12.3545 16.2527Z" fill="white"/>
</svg>
