<svg width="38" height="39" viewBox="0 0 38 39" fill="none" xmlns="http://www.w3.org/2000/svg">
<path d="M24.9375 22.9332C30.1842 22.9332 34.4375 18.6799 34.4375 13.4332C34.4375 8.18652 30.1842 3.93323 24.9375 3.93323C19.6908 3.93323 15.4375 8.18652 15.4375 13.4332C15.4375 18.6799 19.6908 22.9332 24.9375 22.9332Z" stroke="#6D737A" stroke-width="1.5" stroke-linecap="round" stroke-linejoin="round"/>
<path d="M31.6618 20.1574L18.2134 6.70898" stroke="#6D737A" stroke-width="1.5" stroke-linecap="round" stroke-linejoin="round"/>
<path d="M14.8438 23.527L13.0625 25.3082" stroke="#6D737A" stroke-width="1.5" stroke-linecap="round" stroke-linejoin="round"/>
<path d="M15.5563 14.9028L4.17111 30.4293C3.99997 30.6572 3.91764 30.9395 3.93949 31.2236C3.96134 31.5077 4.08589 31.7741 4.28986 31.9731L6.39768 34.0809C6.59664 34.2849 6.86307 34.4094 7.14717 34.4313C7.43127 34.4531 7.71361 34.3708 7.94143 34.1996L23.468 22.8145" stroke="#6D737A" stroke-width="1.5" stroke-linecap="round" stroke-linejoin="round"/>
</svg>
