<svg width="38" height="39" viewBox="0 0 38 39" fill="none" xmlns="http://www.w3.org/2000/svg">
<path d="M17.2188 24.1207C18.8583 24.1207 20.1875 22.7916 20.1875 21.152C20.1875 19.5124 18.8583 18.1832 17.2188 18.1832C15.5792 18.1832 14.25 19.5124 14.25 21.152C14.25 22.7916 15.5792 24.1207 17.2188 24.1207Z" stroke="black" stroke-width="1.5" stroke-linecap="round" stroke-linejoin="round"/>
<path d="M4.75 33.6207L15.1258 23.2449" stroke="black" stroke-width="1.5" stroke-linecap="round" stroke-linejoin="round"/>
<path d="M4.75 33.6207L25.457 30.177C25.6614 30.1421 25.8529 30.0537 26.0119 29.9207C26.171 29.7877 26.292 29.6149 26.3625 29.4199L29.6875 20.5582L17.8125 8.68323L8.95078 12.0082C8.7555 12.0826 8.58298 12.2066 8.45023 12.368C8.31748 12.5294 8.22908 12.7226 8.19375 12.9285L4.75 33.6207Z" stroke="black" stroke-width="1.5" stroke-linecap="round" stroke-linejoin="round"/>
<path d="M29.6875 20.5582L33.5914 16.6543C33.7036 16.5438 33.7927 16.4121 33.8535 16.2669C33.9143 16.1216 33.9457 15.9657 33.9457 15.8082C33.9457 15.6507 33.9143 15.4948 33.8535 15.3496C33.7927 15.2043 33.7036 15.0726 33.5914 14.9621L23.4086 4.77931C23.2981 4.66711 23.1664 4.57801 23.0211 4.51719C22.8759 4.45637 22.72 4.42505 22.5625 4.42505C22.405 4.42505 22.2491 4.45637 22.1039 4.51719C21.9586 4.57801 21.8269 4.66711 21.7164 4.77931L17.8125 8.68322" stroke="black" stroke-width="1.5" stroke-linecap="round" stroke-linejoin="round"/>
</svg>
