<svg width="20" height="21" viewBox="0 0 20 21" fill="none" xmlns="http://www.w3.org/2000/svg">
<path d="M8.07056 9.42177C8.07056 9.42177 9.96288 9.28311 9.96288 7.09281C9.96288 4.90236 8.41472 3.83337 6.45364 3.83337H0.000488281V16.0739H6.45364C6.45364 16.0739 10.3931 16.1968 10.3931 12.4611C10.3931 12.4611 10.5648 9.42177 8.07056 9.42177ZM5.98915 6.009H6.45364C6.45364 6.009 7.33081 6.009 7.33081 7.28257C7.33081 8.55599 6.81494 8.74062 6.22981 8.74062H2.84383V6.009H5.98915ZM6.27129 13.8984H2.84383V10.6273H6.45364C6.45364 10.6273 7.76103 10.6103 7.76103 12.3083C7.76103 13.74 6.78454 13.8876 6.27129 13.8984ZM15.6469 6.94773C10.8779 6.94773 10.8821 11.6509 10.8821 11.6509C10.8821 11.6509 10.5549 16.33 15.6469 16.33C15.6469 16.33 19.8903 16.5693 19.8903 13.075H17.708C17.708 13.075 17.7808 14.3909 15.7197 14.3909C15.7197 14.3909 13.5371 14.5353 13.5371 12.2613H19.9631C19.9631 12.2613 20.6662 6.94773 15.6469 6.94773ZM13.5131 10.6273C13.5131 10.6273 13.7796 8.74058 15.6954 8.74058C17.6109 8.74058 17.5869 10.6273 17.5869 10.6273H13.5131ZM18.0952 6.06183H12.9788V4.5545H18.0952V6.06183Z" fill="#3461FD"/>
</svg>
