<svg width="20" height="21" viewBox="0 0 20 21" fill="none" xmlns="http://www.w3.org/2000/svg">
<g clip-path="url(#clip0_1168_341)">
<path d="M0 2.82298C0 2.14957 0.225232 1.59402 0.675676 1.15632C1.12612 0.718604 1.71172 0.499756 2.43243 0.499756C3.14029 0.499756 3.71299 0.71523 4.15058 1.14622C4.60102 1.59066 4.82625 2.16977 4.82625 2.88359C4.82625 3.53005 4.60747 4.06876 4.16988 4.49975C3.71944 4.94419 3.12741 5.16641 2.39382 5.16641H2.37452C1.66666 5.16641 1.09396 4.94419 0.656371 4.49975C0.218784 4.05531 0 3.49638 0 2.82298ZM0.250965 20.4997V7.0048H4.53668V20.4997H0.250965ZM6.9112 20.4997H11.1969V12.9644C11.1969 12.493 11.2484 12.1294 11.3514 11.8735C11.5315 11.4156 11.805 11.0283 12.1718 10.7119C12.5386 10.3954 12.9987 10.2371 13.5521 10.2371C14.9936 10.2371 15.7143 11.2539 15.7143 13.2876V20.4997H20V12.7624C20 10.7691 19.5496 9.25732 18.6486 8.22702C17.7477 7.19671 16.5573 6.68156 15.0772 6.68156C13.417 6.68156 12.1236 7.42904 11.1969 8.92398V8.96439H11.1776L11.1969 8.92398V7.0048H6.9112C6.93693 7.43576 6.94981 8.77582 6.94981 11.025C6.94981 13.2741 6.93693 16.4324 6.9112 20.4997Z" fill="#3461FD"/>
</g>
<defs>
<clipPath id="clip0_1168_341">
<rect width="20" height="20" fill="white" transform="translate(0 0.5)"/>
</clipPath>
</defs>
</svg>
