<svg width="20" height="20" viewBox="0 0 20 20" fill="none" xmlns="http://www.w3.org/2000/svg">
<path d="M8.07034 8.92177C8.07034 8.92177 9.96266 8.78311 9.96266 6.59281C9.96266 4.40236 8.4145 3.33337 6.45342 3.33337H0.000267029V15.5739H6.45342C6.45342 15.5739 10.3928 15.6968 10.3928 11.9611C10.3928 11.9611 10.5646 8.92177 8.07034 8.92177ZM5.98893 5.509H6.45342C6.45342 5.509 7.33059 5.509 7.33059 6.78257C7.33059 8.05599 6.81472 8.24062 6.22959 8.24062H2.84361V5.509H5.98893ZM6.27107 13.3984H2.84361V10.1273H6.45342C6.45342 10.1273 7.76081 10.1103 7.76081 11.8083C7.76081 13.24 6.78432 13.3876 6.27107 13.3984ZM15.6467 6.44773C10.8776 6.44773 10.8819 11.1509 10.8819 11.1509C10.8819 11.1509 10.5546 15.83 15.6467 15.83C15.6467 15.83 19.8901 16.0693 19.8901 12.575H17.7078C17.7078 12.575 17.7806 13.8909 15.7195 13.8909C15.7195 13.8909 13.5369 14.0353 13.5369 11.7613H19.9629C19.9629 11.7613 20.666 6.44773 15.6467 6.44773ZM13.5129 10.1273C13.5129 10.1273 13.7794 8.24058 15.6952 8.24058C17.6107 8.24058 17.5867 10.1273 17.5867 10.1273H13.5129ZM18.095 5.56183H12.9786V4.0545H18.095V5.56183Z" fill="#2AA754"/>
</svg>
