<svg width="25" height="24" viewBox="0 0 25 24" fill="none" xmlns="http://www.w3.org/2000/svg">
<path d="M13.3297 17.8781L18.0547 20.8781C18.6641 21.2625 19.4141 20.6906 19.236 19.9875L17.8672 14.6063C17.8302 14.4571 17.8361 14.3005 17.8842 14.1546C17.9323 14.0086 18.0207 13.8792 18.1391 13.7813L22.3766 10.2469C22.9297 9.78752 22.6485 8.8594 21.9266 8.81252L16.3954 8.45627C16.2444 8.44749 16.0993 8.39494 15.9778 8.30503C15.8563 8.21513 15.7635 8.09177 15.711 7.95002L13.6485 2.75627C13.5939 2.60618 13.4944 2.47653 13.3636 2.38491C13.2328 2.29329 13.0769 2.24414 12.9172 2.24414C12.7575 2.24414 12.6017 2.29329 12.4709 2.38491C12.34 2.47653 12.2406 2.60618 12.186 2.75627L10.1235 7.95002C10.0709 8.09177 9.9782 8.21513 9.85666 8.30503C9.73512 8.39494 9.59003 8.44749 9.43911 8.45627L3.90786 8.81252C3.18598 8.8594 2.90473 9.78752 3.45786 10.2469L7.69536 13.7813C7.8138 13.8792 7.90216 14.0086 7.95026 14.1546C7.99836 14.3005 8.00424 14.4571 7.96723 14.6063L6.70161 19.5938C6.48598 20.4375 7.38598 21.1219 8.10786 20.6625L12.5047 17.8781C12.628 17.7997 12.7711 17.7581 12.9172 17.7581C13.0633 17.7581 13.2064 17.7997 13.3297 17.8781Z" fill="#FFC27A"/>
</svg>
