<svg width="25" height="24" viewBox="0 0 25 24" fill="none" xmlns="http://www.w3.org/2000/svg">
<path d="M12.7965 17.8781L17.5215 20.8781C18.1309 21.2625 18.8809 20.6906 18.7028 19.9875L17.334 14.6063C17.297 14.4571 17.3029 14.3005 17.351 14.1546C17.3991 14.0086 17.4875 13.8792 17.6059 13.7813L21.8434 10.2469C22.3965 9.78752 22.1153 8.8594 21.3934 8.81252L15.8622 8.45627C15.7112 8.44749 15.5661 8.39494 15.4446 8.30503C15.3231 8.21513 15.2303 8.09177 15.1778 7.95002L13.1153 2.75627C13.0607 2.60618 12.9612 2.47653 12.8304 2.38491C12.6996 2.29329 12.5437 2.24414 12.384 2.24414C12.2243 2.24414 12.0685 2.29329 11.9377 2.38491C11.8068 2.47653 11.7074 2.60618 11.6528 2.75627L9.59028 7.95002C9.53771 8.09177 9.445 8.21513 9.32346 8.30503C9.20192 8.39494 9.05683 8.44749 8.9059 8.45627L3.37465 8.81252C2.65278 8.8594 2.37153 9.78752 2.92465 10.2469L7.16216 13.7813C7.28059 13.8792 7.36895 14.0086 7.41706 14.1546C7.46516 14.3005 7.47104 14.4571 7.43403 14.6063L6.1684 19.5938C5.95278 20.4375 6.85278 21.1219 7.57465 20.6625L11.9715 17.8781C12.0948 17.7997 12.2379 17.7581 12.384 17.7581C12.5301 17.7581 12.6732 17.7997 12.7965 17.8781Z" fill="#E7E9EB"/>
</svg>
